<svg class="icon" viewBox="0 0 1024 1024" xmlns="http://www.w3.org/2000/svg" width="32" height="32"><defs><style/></defs><path d="M875.008 626.496h-77.504V496.288h-.992v-.96H540.704V395.52h77.504a65.344 65.344 0 0 0 65.248-65.344V157.824a65.344 65.344 0 0 0-65.248-65.344H413.984a65.376 65.376 0 0 0-65.216 65.344v172.352c0 36.032 29.248 65.344 65.216 65.344h82.368v99.808H228.896v133.184h-62.624a65.344 65.344 0 0 0-65.216 65.312v172.384c0 36.064 29.248 65.376 65.216 65.376h204.192a65.376 65.376 0 0 0 65.248-65.376V693.824a65.344 65.344 0 0 0-65.248-65.312h-96.256v-84.64H751.2v82.624h-80.448a65.344 65.344 0 0 0-65.184 65.376v172.384c0 36 29.248 65.376 65.184 65.376h204.256a65.376 65.376 0 0 0 65.184-65.376V691.872a65.344 65.344 0 0 0-65.184-65.376zm-478.24-296.32V157.824c0-9.472 7.712-17.184 17.184-17.184h204.224c9.504 0 17.184 7.712 17.184 17.184v172.352c0 9.472-7.68 17.216-17.184 17.216H413.952a17.28 17.28 0 0 1-17.184-17.216zm-9.12 363.648v172.384c0 9.504-7.68 17.184-17.184 17.184H166.272a17.184 17.184 0 0 1-17.184-17.184V693.824c0-9.44 7.712-17.184 17.184-17.184h204.192c9.504 0 17.184 7.744 17.184 17.184zm504.48 170.432c0 9.504-7.68 17.184-17.12 17.184H670.752a17.152 17.152 0 0 1-17.12-17.184V691.872c0-9.504 7.68-17.184 17.12-17.184h204.256c9.44 0 17.12 7.68 17.12 17.184v172.384z"/></svg>