<svg class="icon" viewBox="0 0 1027 1024" xmlns="http://www.w3.org/2000/svg" width="64.188" height="64"><defs><style/></defs><path d="M1017.6 403.2L531.2 6.4c-12.8-6.4-25.6-6.4-38.4 0L6.4 403.2S0 416 0 422.4C0 441.6 12.8 448 25.6 448c6.4 0 12.8-6.4 12.8-6.4L96 396.8v505.6c0 64 51.2 115.2 115.2 115.2H812.8c64 0 115.2-51.2 115.2-115.2V396.8l57.6 51.2s6.4 6.4 12.8 6.4 12.8 0 19.2-6.4l6.4-6.4c6.4-19.2 0-32-6.4-38.4zM614.4 972.8H409.6V665.6c0-57.6 44.8-102.4 102.4-102.4 57.6 0 102.4 44.8 102.4 102.4v307.2zm262.4-57.6c0 32-25.6 57.6-57.6 57.6H665.6V665.6C665.6 576 595.2 512 512 512c-83.2 0-153.6 64-153.6 153.6v307.2H204.8c-32 0-57.6-25.6-57.6-57.6V358.4L512 57.6l364.8 300.8v556.8z"/></svg>