<svg class="icon" viewBox="0 0 1024 1024" xmlns="http://www.w3.org/2000/svg" width="64" height="64"><defs><style/></defs><path d="M736 800a32 32 0 0 0-32 32v96a32 32 0 0 1-32 32H96a32 32 0 0 1-32-32V96a32 32 0 0 1 32-32h576a32 32 0 0 1 32 32v128a32 32 0 0 0 64 0V96a96.11 96.11 0 0 0-96-96H96A96.11 96.11 0 0 0 0 96v832a96.11 96.11 0 0 0 96 96h576a96.11 96.11 0 0 0 96-96v-96a32 32 0 0 0-32-32z"/><path d="M1024 510.42v-.24c0-.63-.09-1.25-.16-1.88 0-.15 0-.3-.05-.46a31.043 31.043 0 0 0-.84-4.21l-.06-.23a31.84 31.84 0 0 0-1.5-4.22l-.05-.12a31.73 31.73 0 0 0-2.1-4l-.14-.22a31.93 31.93 0 0 0-2.59-3.51l-.34-.4c-.46-.52-.93-1-1.43-1.54l-160-160a32 32 0 1 0-45.26 45.25L914.75 480H544a32 32 0 0 0 0 64h370.75L809.38 649.37a32 32 0 1 0 45.25 45.25l160-160 .28-.3.45-.47q.59-.63 1.13-1.27l.24-.28c.46-.55.89-1.12 1.3-1.7l.19-.27c.41-.59.81-1.18 1.17-1.79q.61-1 1.14-2.06a31.78 31.78 0 0 0 1.81-4.36l.05-.17a32 32 0 0 0 1.07-4.29l.08-.47c.11-.68.21-1.37.27-2.05v-.17c.06-.63.09-1.26.11-1.9v-.58c.08-.73.08-1.4.08-2.07z"/></svg>