<svg class="icon" viewBox="0 0 1024 1024" xmlns="http://www.w3.org/2000/svg" width="32" height="32"><defs><style/></defs><path d="M775.88 123.336H255.16c-32.72 0-59.336 26.616-59.336 59.336v668.664c0 32.712 26.616 59.328 59.336 59.328h520.72c32.72 0 59.336-26.616 59.336-59.328V182.664c0-32.712-26.616-59.328-59.336-59.328zm19.336 727.992c0 10.656-8.672 19.328-19.336 19.328H255.16c-10.664 0-19.336-8.672-19.336-19.328v-134.04h504.04c11.048 0 20-8.952 20-20s-8.952-20-20-20h-504.04V182.664c0-10.664 8.672-19.336 19.336-19.336h520.72c10.664 0 19.336 8.672 19.336 19.336v668.664z"/><path d="M573.112 199.544H432.16c-11.048 0-20 8.952-20 20s8.952 20 20 20h140.952c11.048 0 20-8.952 20-20s-8.952-20-20-20zM514.008 766.096c-19.968 0-36.152 16.208-36.152 36.184 0 19.928 16.184 36.136 36.152 36.136 19.96 0 36.144-16.2 36.144-36.136 0-19.976-16.184-36.184-36.144-36.184z"/></svg>