<svg class="icon" viewBox="0 0 1024 1024" xmlns="http://www.w3.org/2000/svg" width="32" height="32"><defs><style/></defs><path d="M972.733 979.133v24.192c-10.496 7.322-16.358 19.134-36.275 14.51-16.455-3.824-17.986-22.681-24.192-39.905-28.016-77.829-66.693-131.973-123.346-182.6-67.681-60.487-168.212-111.493-303.529-104.002-104.524 5.801-188.6 52.639-249.113 105.21-55.399 48.14-97.122 108.576-124.56 186.23-5.667 16.052-9.85 31.878-26.598 35.073-18.913 3.61-22.236-6.385-33.864-14.51v-24.192h2.417c45.02-137.524 131.66-239.622 253.952-297.483 17.96-8.494 38.216-12.2 55.629-24.187-64.082-34.647-115.984-79.692-151.158-143.902-34.545-63.043-53.489-155.53-31.442-245.484 19.093-77.906 60.529-134.671 114.883-181.391C348.462 41.2 421.8 9.298 512 9.298c91.628 0 161.864 32.68 216.458 77.394 54.626 44.723 96.266 105.426 114.883 181.391 40.74 166.195-44.974 296.868-136.643 361.575-14.52 10.24-31.15 17.428-45.957 29.025 153.897 56.514 257.818 163.005 310.784 320.456l1.208-.006zM380.191 95.155c-32.866 16.38-55.987 36.424-77.394 59.254-49.92 53.233-93.153 148.168-72.556 250.322 24.899 123.5 122.573 216.468 252.739 230.973 20.398 2.268 41.093 2.09 59.254 0 72.422-8.34 135.838-41.62 180.188-91.909 40.73-46.203 77.788-110.382 77.389-194.693-.43-91.08-42.348-161.874-90.696-206.786-48.993-45.512-117.816-84.486-220.088-77.394-41.104 2.851-79.145 15.442-108.836 30.233z"/></svg>